<?xml version="1.0" standalone="no"?>
<!DOCTYPE svg PUBLIC "-//W3C//DTD SVG 20010904//EN"
 "http://www.w3.org/TR/2001/REC-SVG-20010904/DTD/svg10.dtd">
<svg version="1.0" xmlns="http://www.w3.org/2000/svg"
 width="512.000000pt" height="512.000000pt" viewBox="0 0 512.000000 512.000000"
 preserveAspectRatio="xMidYMid meet">

<g transform="translate(0.000000,512.000000) scale(0.100000,-0.100000)"
fill="#000000" stroke="none">
<path d="M590 5105 c-221 -45 -409 -188 -510 -390 -77 -154 -75 -131 -75 -852
0 -632 0 -642 21 -669 39 -53 71 -69 134 -69 63 0 95 16 134 69 21 27 21 41
26 659 l5 632 32 67 c44 94 109 160 202 206 l75 37 632 5 c619 5 633 5 660 26
53 39 69 71 69 134 0 63 -16 95 -69 134 -27 21 -38 21 -649 23 -482 1 -637 -2
-687 -12z"/>
<path d="M3215 5106 c-118 -52 -124 -224 -11 -289 16 -9 179 -13 652 -17 l630
-5 75 -37 c93 -46 158 -112 202 -206 l32 -67 5 -632 c5 -618 5 -632 26 -659
39 -53 71 -69 134 -69 63 0 95 16 134 69 21 27 21 37 21 669 0 723 2 697 -77
857 -34 69 -60 103 -138 180 -77 78 -111 104 -180 138 -160 79 -127 76 -840
79 -516 2 -641 0 -665 -11z"/>
<path d="M2395 4326 c-375 -73 -666 -347 -757 -712 -28 -114 -30 -323 -5 -426
44 -181 126 -328 255 -460 42 -43 74 -79 71 -81 -2 -1 -44 -22 -94 -46 -438
-211 -762 -621 -864 -1094 -29 -132 -45 -326 -31 -376 27 -103 130 -150 226
-105 63 30 76 61 91 218 16 167 48 300 102 425 202 470 660 771 1171 771 377
0 717 -155 964 -441 180 -207 282 -453 307 -741 12 -145 26 -187 72 -220 36
-26 116 -35 157 -18 40 17 77 62 90 111 14 49 -2 243 -29 369 -106 482 -425
888 -866 1101 -49 24 -92 45 -94 46 -3 2 29 38 71 81 129 132 211 281 255 460
20 84 23 303 4 387 -80 364 -346 644 -696 736 -103 27 -301 34 -400 15z m299
-321 c99 -21 205 -77 285 -151 87 -81 137 -155 175 -264 26 -75 30 -98 30
-195 0 -184 -54 -315 -185 -446 -121 -122 -268 -183 -439 -183 -108 0 -174 16
-280 67 -152 74 -275 222 -326 392 -29 96 -25 258 9 360 34 103 90 188 177
268 151 140 352 195 554 152z"/>
<path d="M95 1986 c-41 -18 -83 -69 -90 -109 -3 -18 -5 -311 -3 -652 4 -695 1
-666 80 -825 34 -69 60 -103 138 -180 77 -78 111 -104 180 -138 160 -79 134
-77 857 -77 632 0 642 0 669 21 53 39 69 71 69 134 0 63 -16 95 -69 134 -27
21 -41 21 -659 26 l-632 5 -67 32 c-94 44 -160 109 -206 202 l-37 75 -5 632
c-5 619 -5 633 -26 660 -11 15 -32 37 -46 47 -33 25 -113 32 -153 13z"/>
<path d="M4900 1989 c-29 -12 -67 -46 -83 -74 -9 -14 -13 -199 -17 -651 l-5
-630 -37 -75 c-46 -93 -112 -158 -206 -202 l-67 -32 -632 -5 c-618 -5 -632 -5
-659 -26 -53 -39 -69 -71 -69 -134 0 -63 16 -95 69 -134 27 -21 37 -21 669
-21 723 0 694 -3 857 77 70 35 102 59 181 137 78 79 102 111 137 181 80 163
77 134 77 857 0 632 0 642 -21 669 -11 15 -32 37 -46 47 -31 23 -111 32 -148
16z"/>
</g>
</svg>
